<svg xmlns="http://www.w3.org/2000/svg" version="1.1" xmlns:xlink="http://www.w3.org/1999/xlink" xmlns:svgjs="http://svgjs.com/svgjs" width="500" height="500"><svg width="500" height="500" viewBox="0 0 500 500" fill="none" xmlns="http://www.w3.org/2000/svg">
<path d="M490.837 158.864V341.895C490.837 345.686 487.764 348.759 483.974 348.759H377.983C374.193 348.759 371.12 345.685 371.12 341.895V158.864C371.12 155.073 374.193 152 377.983 152H483.973C487.765 152 490.837 155.073 490.837 158.864Z" fill="#65C6BB"></path>
<path d="M371.12 158.863V250.379H490.838V158.863C490.838 155.073 487.764 152 483.974 152H377.983C374.192 152 371.12 155.073 371.12 158.863Z" fill="#20B8AE"></path>
<path d="M453.673 250.379C453.673 262.893 443.492 273.073 430.978 273.073C418.465 273.073 408.284 262.893 408.284 250.379C408.284 237.866 418.465 227.685 430.978 227.685C443.492 227.685 453.673 237.866 453.673 250.379Z" fill="#20B8AE"></path>
<path d="M473.86 193.871V306.888C473.86 310.679 470.787 313.751 466.996 313.751C460.839 313.751 455.831 318.761 455.831 324.917C455.831 328.708 452.758 331.781 448.967 331.781H412.991C409.2 331.781 406.127 328.707 406.127 324.917C406.127 318.76 401.118 313.751 394.962 313.751C391.171 313.751 388.098 310.678 388.098 306.888V193.871C388.098 190.08 391.171 187.007 394.962 187.007C401.119 187.007 406.127 181.998 406.127 175.842C406.127 172.051 409.201 168.978 412.991 168.978H448.967C452.758 168.978 455.831 172.051 455.831 175.842C455.831 181.999 460.84 187.007 466.996 187.007C470.788 187.007 473.86 190.08 473.86 193.871ZM460.133 300.987V199.773C451.915 197.412 445.426 190.923 443.065 182.705H418.891C416.53 190.923 410.041 197.412 401.823 199.773V300.987C410.041 303.347 416.53 309.837 418.891 318.054H443.065C445.426 309.837 451.916 303.347 460.133 300.987Z" fill="#20B8AE"></path>
<path d="M408.284 250.379H453.673C453.673 237.866 443.492 227.685 430.979 227.685C418.465 227.685 408.284 237.866 408.284 250.379Z" fill="#1DA49C"></path>
<path d="M406.127 175.841C406.127 181.998 401.117 187.007 394.961 187.007C391.17 187.007 388.097 190.08 388.097 193.87V250.379H401.825V199.772C410.042 197.411 416.532 190.922 418.892 182.704H443.066C445.427 190.922 451.916 197.411 460.134 199.772V250.379H473.862V193.871C473.862 190.08 470.788 187.007 466.998 187.007C460.841 187.007 455.832 181.998 455.832 175.842C455.832 172.051 452.759 168.978 448.969 168.978H412.992C409.2 168.977 406.127 172.05 406.127 175.841Z" fill="#1DA49C"></path>
<rect x="9" y="152" width="347.467" height="196.759" rx="16.7454" fill="#1AA179"></rect>
<path d="M148.629 232.839H123.277C122.814 229.559 121.868 226.646 120.44 224.099C119.013 221.513 117.18 219.314 114.942 217.5C112.704 215.687 110.118 214.297 107.186 213.333C104.291 212.368 101.147 211.886 97.7508 211.886C91.6154 211.886 86.2709 213.41 81.7176 216.458C77.1642 219.468 73.6335 223.867 71.1253 229.655C68.617 235.405 67.3629 242.389 67.3629 250.609C67.3629 259.059 68.617 266.159 71.1253 271.909C73.672 277.659 77.2221 282 81.7755 284.932C86.3288 287.865 91.5961 289.331 97.5772 289.331C100.934 289.331 104.041 288.888 106.896 288C109.79 287.113 112.356 285.82 114.594 284.122C116.832 282.386 118.685 280.283 120.151 277.813C121.656 275.343 122.698 272.526 123.277 269.362L148.629 269.478C147.973 274.919 146.333 280.167 143.709 285.222C141.123 290.238 137.631 294.734 133.232 298.708C128.872 302.644 123.662 305.77 117.604 308.085C111.585 310.362 104.774 311.5 97.172 311.5C86.5989 311.5 77.1449 309.108 68.81 304.323C60.5136 299.538 53.9537 292.611 49.1302 283.543C44.3453 274.475 41.9529 263.497 41.9529 250.609C41.9529 237.682 44.3839 226.684 49.246 217.616C54.108 208.548 60.7066 201.641 69.0415 196.894C77.3765 192.109 86.7533 189.717 97.172 189.717C104.041 189.717 110.408 190.682 116.273 192.611C122.177 194.54 127.406 197.357 131.959 201.062C136.512 204.728 140.217 209.223 143.072 214.548C145.966 219.873 147.818 225.97 148.629 232.839ZM213.427 220.973V239.495H159.887V220.973H213.427ZM172.042 199.673H196.699V282.559C196.699 284.836 197.047 286.611 197.741 287.884C198.436 289.119 199.401 289.987 200.635 290.489C201.909 290.991 203.375 291.241 205.034 291.241C206.192 291.241 207.35 291.145 208.507 290.952C209.665 290.72 210.552 290.547 211.17 290.431L215.048 308.78C213.813 309.165 212.077 309.609 209.839 310.111C207.601 310.651 204.88 310.979 201.677 311.095C195.735 311.326 190.525 310.535 186.049 308.722C181.612 306.908 178.158 304.091 175.688 300.271C173.219 296.451 172.003 291.627 172.042 285.801V199.673ZM229.489 309.879V220.973H253.395V236.485H254.321C255.941 230.967 258.662 226.8 262.482 223.983C266.302 221.127 270.701 219.7 275.679 219.7C276.914 219.7 278.245 219.777 279.673 219.931C281.101 220.086 282.355 220.298 283.435 220.568V242.447C282.278 242.1 280.676 241.791 278.631 241.521C276.586 241.251 274.714 241.116 273.016 241.116C269.389 241.116 266.148 241.907 263.292 243.489C260.475 245.033 258.237 247.193 256.578 249.972C254.957 252.75 254.147 255.953 254.147 259.58V309.879H229.489ZM320.841 191.338V309.879H296.184V191.338H320.841Z" fill="white"></path>
</svg><style>@media (prefers-color-scheme: light) { :root { filter: none; } }
@media (prefers-color-scheme: dark) { :root { filter: none; } }
</style></svg>