<svg width="253" height="103" viewBox="0 0 253 103" fill="none" xmlns="http://www.w3.org/2000/svg">
<rect width="181.894" height="103" rx="8.76596" fill="#1AA179"/>
<path d="M73.0925 42.6705H59.8211C59.5787 40.9535 59.0838 39.4284 58.3364 38.0952C57.589 36.7418 56.6295 35.5904 55.4579 34.641C54.2863 33.6916 52.9329 32.9644 51.3977 32.4594C49.8826 31.9544 48.2363 31.7019 46.4587 31.7019C43.2469 31.7019 40.4492 32.4998 38.0656 34.0956C35.682 35.6712 33.8337 37.974 32.5207 41.004C31.2077 44.0139 30.5512 47.6701 30.5512 51.9727C30.5512 56.3965 31.2077 60.1133 32.5207 63.1231C33.8539 66.1329 35.7123 68.4054 38.0959 69.9407C40.4795 71.4759 43.2368 72.2435 46.3678 72.2435C48.1252 72.2435 49.7513 72.0112 51.2462 71.5466C52.7612 71.082 54.1045 70.4053 55.2761 69.5164C56.4477 68.6074 57.4173 67.5065 58.1849 66.2137C58.9727 64.9209 59.5181 63.4463 59.8211 61.7899L73.0925 61.8505C72.7491 64.6987 71.8906 67.4459 70.517 70.0922C69.1636 72.7182 67.3355 75.0715 65.0327 77.1521C62.7501 79.2125 60.0231 80.8487 56.8517 82.0607C53.7005 83.2525 50.1351 83.8484 46.1557 83.8484C40.6209 83.8484 35.6719 82.596 31.3087 80.0912C26.9657 77.5864 23.5316 73.9605 21.0066 69.2134C18.5018 64.4664 17.2494 58.7195 17.2494 51.9727C17.2494 45.2057 18.522 39.4486 21.0672 34.7016C23.6124 29.9546 27.0667 26.3388 31.4299 23.8542C35.7931 21.3494 40.7017 20.097 46.1557 20.097C49.7513 20.097 53.0844 20.602 56.1548 21.612C59.2454 22.622 61.9825 24.0966 64.3661 26.0358C66.7497 27.9548 68.6889 30.3081 70.1837 33.0957C71.6987 35.8833 72.6683 39.0749 73.0925 42.6705ZM107.014 36.459V46.1551H78.9859V36.459H107.014ZM85.3489 25.3086H98.2568V68.6983C98.2568 69.8902 98.4386 70.8194 98.8022 71.486C99.1658 72.1324 99.6708 72.5869 100.317 72.8495C100.984 73.1121 101.751 73.2434 102.62 73.2434C103.226 73.2434 103.832 73.1929 104.438 73.0919C105.044 72.9707 105.509 72.8798 105.832 72.8192L107.862 82.4243C107.216 82.6263 106.307 82.8586 105.135 83.1212C103.963 83.404 102.539 83.5757 100.863 83.6363C97.7518 83.7575 95.0248 83.3434 92.6816 82.394C90.3585 81.4446 88.5506 79.97 87.2578 77.9702C85.965 75.9704 85.3287 73.4454 85.3489 70.3952V25.3086ZM115.422 83V36.459H127.936V44.5795H128.421C129.269 41.6908 130.693 39.5092 132.693 38.0346C134.693 36.5398 136.995 35.7924 139.601 35.7924C140.248 35.7924 140.945 35.8328 141.692 35.9136C142.439 35.9944 143.096 36.1055 143.662 36.2469V47.7004C143.055 47.5186 142.217 47.357 141.147 47.2156C140.076 47.0742 139.096 47.0035 138.207 47.0035C136.309 47.0035 134.612 47.4176 133.117 48.2458C131.642 49.0538 130.471 50.185 129.602 51.6394C128.754 53.0938 128.33 54.7704 128.33 56.6692V83H115.422ZM163.243 20.9454V83H150.335V20.9454H163.243Z" fill="white"/>
<path d="M252.234 3.59293V99.4071C252.234 101.391 250.625 103 248.641 103H193.157C191.172 103 189.564 101.391 189.564 99.4071V3.59293C189.564 1.60857 191.173 0 193.157 0H248.641C250.626 0 252.234 1.60877 252.234 3.59293Z" fill="#65C6BB"/>
<path d="M189.564 3.59293V51.5H252.234V3.59293C252.234 1.60857 250.626 0 248.641 0H193.157C191.172 0 189.564 1.60877 189.564 3.59293Z" fill="#20B8AE"/>
<path d="M232.779 51.5C232.779 58.0506 227.449 63.38 220.899 63.38C214.348 63.38 209.019 58.0506 209.019 51.5C209.019 44.9495 214.348 39.62 220.899 39.62C227.449 39.62 232.779 44.9495 232.779 51.5Z" fill="#20B8AE"/>
<path d="M243.347 21.9187V81.0813C243.347 83.0657 241.738 84.6743 239.754 84.6743C236.531 84.6743 233.909 87.2965 233.909 90.5193C233.909 92.5037 232.3 94.1122 230.316 94.1122H211.483C209.498 94.1122 207.89 92.5035 207.89 90.5193C207.89 87.2961 205.267 84.6743 202.045 84.6743C200.06 84.6743 198.452 83.0655 198.452 81.0813V21.9187C198.452 19.9343 200.061 18.3258 202.045 18.3258C205.268 18.3258 207.89 15.7035 207.89 12.4807C207.89 10.4964 209.499 8.88778 211.483 8.88778H230.316C232.3 8.88778 233.909 10.4966 233.909 12.4807C233.909 15.7039 236.531 18.3258 239.754 18.3258C241.738 18.3256 243.347 19.9343 243.347 21.9187ZM236.161 77.9921V25.0083C231.859 23.7725 228.462 20.3753 227.226 16.0736H214.571C213.335 20.3753 209.938 23.7725 205.637 25.0083V77.9921C209.938 79.2279 213.335 82.6251 214.571 86.9268H227.226C228.462 82.6249 231.859 79.2279 236.161 77.9921Z" fill="#20B8AE"/>
<path d="M209.019 51.5H232.779C232.779 44.9494 227.45 39.62 220.899 39.62C214.348 39.62 209.019 44.9494 209.019 51.5Z" fill="#1DA49C"/>
<path d="M207.889 12.4805C207.889 15.7037 205.267 18.3256 202.044 18.3256C200.06 18.3256 198.451 19.9343 198.451 21.9185V51.5H205.637V25.0079C209.939 23.7721 213.336 20.3749 214.572 16.0732H227.227C228.463 20.3749 231.86 23.7721 236.161 25.0079V51.5H243.348V21.9187C243.348 19.9343 241.739 18.3258 239.755 18.3258C236.531 18.3258 233.91 15.7035 233.91 12.4807C233.91 10.4963 232.301 8.88778 230.317 8.88778H211.484C209.498 8.88737 207.889 10.4959 207.889 12.4805Z" fill="#1DA49C"/>
</svg>
