<svg width="300" height="300" viewBox="0 0 300 300" fill="none" xmlns="http://www.w3.org/2000/svg">
<g clip-path="url(#clip0_3_2)">
<g clip-path="url(#clip1_3_2)">
<path fill-rule="evenodd" clip-rule="evenodd" d="M300 150C300 232.842 232.842 300 150 300C67.1573 300 0 232.842 0 150C0 67.1572 67.1573 -3.05176e-05 150 -3.05176e-05C232.842 -3.05176e-05 300 67.1572 300 150ZM195 105C195 129.853 174.854 150 150 150C125.147 150 105 129.853 105 105C105 80.1472 125.147 60 150 60C174.854 60 195 80.1472 195 105ZM150 277.5C176.76 277.5 201.596 269.256 222.104 255.168C231.162 248.946 235.032 237.093 229.767 227.448C218.85 207.455 196.353 195 149.999 195C103.645 195 81.1496 207.453 70.2321 227.448C64.9658 237.093 68.8365 248.945 77.8944 255.167C98.4027 269.255 123.239 277.5 150 277.5Z" fill="#1AA179"/>
</g>
</g>
<defs>
<clipPath id="clip0_3_2">
<rect width="300" height="300" fill="white"/>
</clipPath>
<clipPath id="clip1_3_2">
<rect width="300" height="300" fill="white"/>
</clipPath>
</defs>
</svg>
